<svg xmlns="http://www.w3.org/2000/svg" xmlns:xlink="http://www.w3.org/1999/xlink" width="128" height="128"><defs><linearGradient id="m"><stop offset="0" stop-color="#fff"/><stop offset="1" stop-color="#fff" stop-opacity="0"/></linearGradient><linearGradient id="l"><stop offset="0" stop-color="#171717"/><stop offset="1" stop-color="#777"/></linearGradient><linearGradient id="k"><stop offset="0" stop-color="#fff"/><stop offset="1" stop-color="#fff" stop-opacity="0"/></linearGradient><linearGradient id="x"><stop offset="0" stop-color="#e5ff00"/><stop offset="1" stop-color="#e5ff00" stop-opacity="0"/></linearGradient><linearGradient id="j"><stop offset="0" stop-color="#ff0"/><stop offset="1" stop-color="#ff0" stop-opacity="0"/></linearGradient><linearGradient id="h"><stop offset="0" stop-color="#ffff1d"/><stop offset="1" stop-color="#ffff6f" stop-opacity="0"/></linearGradient><linearGradient id="g"><stop offset="0" stop-color="#ff0"/><stop offset="1" stop-color="#ff0" stop-opacity="0"/></linearGradient><linearGradient id="w"><stop offset="0"/><stop offset="1" stop-opacity="0"/></linearGradient><linearGradient id="f"><stop offset="0"/><stop offset="1" stop-opacity="0"/></linearGradient><linearGradient id="u"><stop offset="0" stop-color="#181818"/><stop offset="1" stop-color="#ababab"/></linearGradient><linearGradient id="e"><stop offset="0" stop-color="gray"/><stop offset="1" stop-color="#232323"/></linearGradient><linearGradient id="d"><stop offset="0" stop-color="#ededed"/><stop offset="1" stop-color="#bcbcbc"/></linearGradient><linearGradient id="c"><stop offset="0"/><stop offset="1" stop-opacity="0"/></linearGradient><linearGradient id="b"><stop offset="0" stop-color="#ddd"/><stop offset="1" stop-color="#fbfbfb"/></linearGradient><linearGradient id="q"><stop offset="0" stop-color="#979797"/><stop offset="1" stop-color="#454545"/></linearGradient><linearGradient id="a"><stop offset="0"/><stop offset="1" stop-opacity="0"/></linearGradient><linearGradient id="p"><stop offset="0" stop-color="#5e5e5e"/><stop offset="1" stop-color="#292929"/></linearGradient><linearGradient id="o"><stop offset="0" stop-color="#fff"/><stop offset="1" stop-color="#fff" stop-opacity="0"/></linearGradient><linearGradient xlink:href="#a" id="O" x1="100" x2="100" y1="92.8" y2="60" gradientUnits="userSpaceOnUse"/><linearGradient xlink:href="#a" id="M" x1="100" x2="100" y1="92.8" y2="60" gradientTransform="translate(0 -120)" gradientUnits="userSpaceOnUse"/><linearGradient xlink:href="#b" id="Y" x1="110.8" x2="106.7" y1="32.6" y2="24.2" gradientUnits="userSpaceOnUse"/><linearGradient xlink:href="#c" id="V" x1="111.6" x2="116.8" y1="31.2" y2="35.1" gradientTransform="translate(-1)" gradientUnits="userSpaceOnUse"/><linearGradient xlink:href="#c" id="ad" x1="111.6" x2="116.8" y1="31.2" y2="35.1" gradientTransform="translate(-1)" gradientUnits="userSpaceOnUse"/><linearGradient xlink:href="#b" id="af" x1="110.8" x2="106.7" y1="32.6" y2="24.2" gradientUnits="userSpaceOnUse"/><linearGradient xlink:href="#c" id="ag" x1="111.6" x2="116.8" y1="31.2" y2="35.1" gradientTransform="translate(-1)" gradientUnits="userSpaceOnUse"/><linearGradient xlink:href="#b" id="ai" x1="110.8" x2="106.7" y1="32.6" y2="24.2" gradientUnits="userSpaceOnUse"/><linearGradient xlink:href="#d" id="an" x1="110" x2="110" y1="84" y2="72.1" gradientUnits="userSpaceOnUse"/><linearGradient xlink:href="#e" id="ak" x1="110" x2="110" y1="84" y2="88" gradientUnits="userSpaceOnUse"/><linearGradient xlink:href="#d" id="ao" x1="110" x2="110" y1="84" y2="72.1" gradientTransform="matrix(1 0 0 .2 0 -91)" gradientUnits="userSpaceOnUse"/><linearGradient xlink:href="#f" id="al" x1="113.3" x2="118" y1="79.7" y2="79.7" gradientUnits="userSpaceOnUse"/><linearGradient xlink:href="#a" id="U" x1="100" x2="100" y1="92.8" y2="72.8" gradientUnits="userSpaceOnUse"/><linearGradient xlink:href="#a" id="ar" x1="100" x2="95.7" y1="65.7" y2="65.7" gradientUnits="userSpaceOnUse"/><linearGradient xlink:href="#a" id="au" x1="100" x2="95.9" y1="65.7" y2="65.7" gradientTransform="translate(-112)" gradientUnits="userSpaceOnUse"/><linearGradient xlink:href="#a" id="aq" x1="48.9" x2="48.9" y1="24" y2="30.3" gradientTransform="translate(-112)" gradientUnits="userSpaceOnUse"/><linearGradient xlink:href="#g" id="Q" x1="100.1" x2="-17.2" y1="69.5" y2="69.5" gradientUnits="userSpaceOnUse"/><linearGradient xlink:href="#h" id="R" x1="101.4" x2="-36" y1="64.3" y2="64.3" gradientUnits="userSpaceOnUse"/><linearGradient xlink:href="#j" id="T" x1="99.7" x2="-3.4" y1="63" y2="63" gradientUnits="userSpaceOnUse"/><linearGradient xlink:href="#k" id="ax" x1="20.9" x2="23.2" y1="96.9" y2="105.2" gradientUnits="userSpaceOnUse"/><linearGradient xlink:href="#l" id="aw" x1="34.7" x2="21.3" y1="106.9" y2="100" gradientTransform="matrix(.67 0 0 1 5 0)" gradientUnits="userSpaceOnUse"/><linearGradient xlink:href="#m" id="ap" x1="29.4" x2="35.5" y1="27.1" y2="50.2" gradientUnits="userSpaceOnUse"/><filter id="A"><feGaussianBlur stdDeviation=".1"/></filter><filter id="B"><feGaussianBlur stdDeviation=".1"/></filter><filter id="C" width="1" height="1.6" x="0" y="0"><feGaussianBlur stdDeviation=".9"/></filter><filter id="av"><feGaussianBlur stdDeviation=".2"/></filter><filter id="N"><feGaussianBlur stdDeviation=".2"/></filter><filter id="ac" width="1.2" height="1.3" x="0" y="0"><feGaussianBlur stdDeviation=".1"/></filter><filter id="aa" width="1.2" height="1.2" x="0" y="0"><feGaussianBlur stdDeviation=".1"/></filter><filter id="ab" width="1.2" height="1.3" x="0" y="0"><feGaussianBlur stdDeviation=".1"/></filter><filter id="Z" width="1.2" height="1.2" x="0" y="0"><feGaussianBlur stdDeviation=".1"/></filter><filter id="W"><feGaussianBlur stdDeviation=".3"/></filter><filter id="am" width="1.6" height="1.2" x="0" y="0"><feGaussianBlur stdDeviation=".5"/></filter><filter id="at" width="1.1" height="1.5" x="0" y="0"><feGaussianBlur stdDeviation="1.4"/></filter><filter id="S" width="1.1" height="1.3" x="0" y="0"><feGaussianBlur stdDeviation="1.8"/></filter><filter id="az" width="1.3" height="1.3" x="0" y="0"><feGaussianBlur stdDeviation=".2"/></filter><filter id="z"><feGaussianBlur stdDeviation="2.6"/></filter><radialGradient xlink:href="#o" id="D" cx="64" cy="7.2" r="56" fx="64" fy="7.2" gradientTransform="matrix(1.24 0 0 .8 -15 10)" gradientUnits="userSpaceOnUse"/><radialGradient xlink:href="#p" id="K" cx="56" cy="66" r="44" fx="56" fy="64.8" gradientTransform="matrix(2.2 0 0 2.06 -68 -107)" gradientUnits="userSpaceOnUse"/><radialGradient xlink:href="#p" id="y" cx="56" cy="66" r="44" fx="56" fy="64.8" gradientTransform="matrix(2.2 0 0 2.06 -68 -107)" gradientUnits="userSpaceOnUse"/><radialGradient xlink:href="#q" id="X" cx="108.3" cy="25.5" r="4.2" fx="108.3" fy="25.5" gradientTransform="translate(-47 -11)scale(1.43)" gradientUnits="userSpaceOnUse"/><radialGradient xlink:href="#q" id="ae" cx="108.3" cy="25.5" r="4.2" fx="108.3" fy="25.5" gradientTransform="translate(-47 -11)scale(1.43)" gradientUnits="userSpaceOnUse"/><radialGradient xlink:href="#q" id="ah" cx="108.3" cy="25.5" r="4.2" fx="108.3" fy="25.5" gradientTransform="translate(-47 -11)scale(1.43)" gradientUnits="userSpaceOnUse"/><radialGradient xlink:href="#u" id="aj" cx="110" cy="87.7" r="4" fx="110" fy="87.7" gradientTransform="matrix(5.34 0 0 6.16 -478 -454)" gradientUnits="userSpaceOnUse"/><radialGradient xlink:href="#w" id="as" cx="64" cy="74" r="52" fx="64" fy="74" gradientTransform="matrix(1 0 0 .29 0 75)" gradientUnits="userSpaceOnUse" spreadMethod="reflect"/><radialGradient xlink:href="#x" id="ay" cx="18" cy="102" r="2" fx="18" fy="102" gradientTransform="translate(-41 -230)scale(3.26)" gradientUnits="userSpaceOnUse"/><clipPath id="L" clipPathUnits="userSpaceOnUse"><rect width="88" height="72" x="12" y="24" fill="url(#y)" rx="5" ry="5"/></clipPath><clipPath id="P" clipPathUnits="userSpaceOnUse"><rect width="88" height="72" x="-100" y="23" opacity=".3" rx="5" ry="5" transform="scale(-1 1)"/></clipPath></defs><rect width="112" height="96" x="8" y="16" filter="url(#z)" opacity=".7" rx="7.9" ry="8" transform="matrix(.99 0 0 1 1 1)"/><rect width="112" height="96" x="8" y="16" fill="#eee" rx="5" ry="5"/><path fill="#fff" d="M13 16a5 5 0 0 0-5 5v1a5 5 0 0 1 5-5h102a5 5 0 0 1 5 5v-1a5 5 0 0 0-5-5z" filter="url(#A)"/><path fill="#fff" d="M13 16a5 5 0 0 0-5 5v86a5 5 0 0 0 5 5h1a5 5 0 0 1-5-5V21a5 5 0 0 1 5-5z" filter="url(#B)"/><path fill="#fff" d="M13 16a5 5 0 0 0-5 5v86a5 5 0 0 0 5 5h1a5 5 0 0 1-5-5V21a5 5 0 0 1 5-5z" filter="url(#B)" transform="matrix(-1 0 0 1 128 0)"/><path d="M8 105v2a5 5 0 0 0 5 5h102a5 5 0 0 0 5-5v-2a5 5 0 0 1-5 5H13a5 5 0 0 1-5-5" filter="url(#C)" opacity=".4" transform="matrix(1 0 0 1.17 0 -19)"/><path d="M13 16a5 5 0 0 0-5 5v1a5 5 0 0 1 5-5h102a5 5 0 0 1 5 5v-1a5 5 0 0 0-5-5z" filter="url(#A)" opacity=".4" transform="matrix(1 0 0 -1.17 0 131)"/><path fill="#fff" d="M8 105v2a5 5 0 0 0 5 5h102a5 5 0 0 0 5-5v-2a5 5 0 0 1-5 5H13a5 5 0 0 1-5-5" filter="url(#C)" opacity=".5" transform="matrix(1 0 0 -1 0 128)"/><rect width="112" height="96" x="8" y="16" fill="url(#D)" rx="5" ry="5"/><rect width="88" height="72" x="12" y="24" fill="url(#K)" rx="5" ry="5"/><path d="M12 30v-1a5 5 0 0 1 5-5h78a5 5 0 0 1 5 5v1a5 5 0 0 0-5-5H17a5 5 0 0 0-5 5" opacity=".6"/><g fill="#ff7e00" stroke="#d3d7cf" clip-path="url(#L)" opacity=".3"><path fill-rule="evenodd" d="M24.5 19.5v80m16-80v80m16-80v80m16-80v80m16-80v80m-88-39h110.6M.5 79.5h110.6M.5 40.5h110.6" opacity="1"/></g><rect width="88" height="72" x="12" y="-96" fill="url(#M)" opacity=".3" rx="5" ry="5" transform="scale(1 -1)"/><path d="M12 30v-1a5 5 0 0 1 5-5h78a5 5 0 0 1 5 5v1a5 5 0 0 0-5-5H17a5 5 0 0 0-5 5" filter="url(#N)" opacity=".7"/><rect width="88" height="72" x="12" y="24" fill="url(#O)" opacity=".4" rx="5" ry="5"/><g clip-path="url(#P)" transform="translate(0 1)"><path fill="url(#Q)" fill-rule="evenodd" d="m16.2 126.8-18.8-28L12 79.5h12l12-24h16l12 16h12l8-12h21.1v65.4" opacity=".3"/><path fill="none" stroke="url(#R)" stroke-linejoin="round" stroke-width="2" d="m4 59.5 8 20h12l12-24h16l12 16h12l8-12h24" filter="url(#S)"/><path fill="none" stroke="url(#T)" stroke-linejoin="round" d="m4 59.5 8 20h12l12-24h16l12 16h12l8-12h24"/></g><rect width="88" height="72" x="12" y="24" fill="url(#U)" opacity=".3" rx="5" ry="5"/><path fill="url(#V)" fill-rule="evenodd" d="m112.8 27.4.2.5zm.5 1.3.1 1.1a4 4 0 0 1-4 4h-.5l3 .8 2.8 1.7L117 34l-2.5-2.3z" filter="url(#W)" opacity=".7"/><path fill="url(#X)" d="M112.3 28.4a4.2 4.2 0 1 1-8.3 0 4.2 4.2 0 1 1 8.3 0" transform="matrix(.96 0 0 .96 6 3)"/><path fill="url(#Y)" d="M112.3 28.4a4.2 4.2 0 1 1-8.3 0 4.2 4.2 0 1 1 8.3 0" transform="matrix(.64 0 0 .64 41 12)"/><path fill="#a6a6a6" fill-rule="evenodd" d="M111.3 27.7 110 30l2.3-1.4z" filter="url(#Z)" opacity=".4"/><path fill="#a6a6a6" fill-rule="evenodd" d="M108.7 32.3 110 30l-2.3 1.4z" filter="url(#aa)" opacity=".4"/><path fill="#a6a6a6" fill-rule="evenodd" d="M112.7 30H110l2.3 1.3q.4-.7.4-1.4" filter="url(#ab)" opacity=".4"/><path fill="#a6a6a6" fill-rule="evenodd" d="M107.3 30h2.7l-2.3-1.3q-.4.6-.4 1.4" filter="url(#ac)" opacity=".4"/><path fill="#323232" d="M109.6 29a.8.8 0 1 1-1.6 0 .8.8 0 1 1 1.6 0m-2.6 5.3a.5.5 0 1 1-1 0 .5.5 0 1 1 1 0m-2-3a.5.5 0 1 1-1 0 .5.5 0 1 1 1 0m0-3a.5.5 0 1 1-1 0 .5.5 0 1 1 1 0m2-3a.5.5 0 1 1-1 0 .5.5 0 1 1 1 0m8 4a.5.5 0 1 0 1 0 .5.5 0 1 0-1 0m-1-3a.5.5 0 1 0 1 0 .5.5 0 1 0-1 0m-2-2a.5.5 0 1 0 1 0 .5.5 0 1 0-1 0m-2 0a.5.5 0 1 1-1 0 .5.5 0 1 1 1 0"/><path fill="url(#ad)" fill-rule="evenodd" d="m112.8 27.4.2.5zm.5 1.3.1 1.1a4 4 0 0 1-4 4h-.5l3 .8 2.8 1.7L117 34l-2.5-2.3z" filter="url(#W)" opacity=".7" transform="translate(0 14)"/><path fill="url(#ae)" d="M112.3 28.4a4.2 4.2 0 1 1-8.3 0 4.2 4.2 0 1 1 8.3 0" transform="matrix(.96 0 0 .96 6 17)"/><path fill="url(#af)" d="M112.3 28.4a4.2 4.2 0 1 1-8.3 0 4.2 4.2 0 1 1 8.3 0" transform="matrix(.64 0 0 .64 41 26)"/><path fill="#a6a6a6" fill-rule="evenodd" d="M111.3 27.7 110 30l2.3-1.4z" filter="url(#Z)" opacity=".4" transform="translate(0 14)"/><path fill="#a6a6a6" fill-rule="evenodd" d="M108.7 32.3 110 30l-2.3 1.4z" filter="url(#aa)" opacity=".4" transform="translate(0 14)"/><path fill="#a6a6a6" fill-rule="evenodd" d="M112.7 30H110l2.3 1.3q.4-.7.4-1.4" filter="url(#ab)" opacity=".4" transform="translate(0 14)"/><path fill="#a6a6a6" fill-rule="evenodd" d="M107.3 30h2.7l-2.3-1.3q-.4.6-.4 1.4" filter="url(#ac)" opacity=".4" transform="translate(0 14)"/><path fill="#323232" d="M109.6 43a.8.8 0 1 1-1.6 0 .8.8 0 1 1 1.6 0m-2.6 5.3a.5.5 0 1 1-1 0 .5.5 0 1 1 1 0m-2-3a.5.5 0 1 1-1 0 .5.5 0 1 1 1 0m0-3a.5.5 0 1 1-1 0 .5.5 0 1 1 1 0m2-3a.5.5 0 1 1-1 0 .5.5 0 1 1 1 0m8 4a.5.5 0 1 0 1 0 .5.5 0 1 0-1 0m-1-3a.5.5 0 1 0 1 0 .5.5 0 1 0-1 0m-2-2a.5.5 0 1 0 1 0 .5.5 0 1 0-1 0m-2 0a.5.5 0 1 1-1 0 .5.5 0 1 1 1 0"/><path fill="url(#ag)" fill-rule="evenodd" d="m112.8 27.4.2.5zm.5 1.3.1 1.1a4 4 0 0 1-4 4h-.5l3 .8 2.8 1.7L117 34l-2.5-2.3z" filter="url(#W)" opacity=".7" transform="translate(0 28)"/><path fill="url(#ah)" d="M112.3 28.4a4.2 4.2 0 1 1-8.3 0 4.2 4.2 0 1 1 8.3 0" transform="matrix(.96 0 0 .96 6 31)"/><path fill="url(#ai)" d="M112.3 28.4a4.2 4.2 0 1 1-8.3 0 4.2 4.2 0 1 1 8.3 0" transform="matrix(.64 0 0 .64 41 40)"/><path fill="#a6a6a6" fill-rule="evenodd" d="M111.3 27.7 110 30l2.3-1.4z" filter="url(#Z)" opacity=".4" transform="translate(0 28)"/><path fill="#a6a6a6" fill-rule="evenodd" d="M108.7 32.3 110 30l-2.3 1.4z" filter="url(#aa)" opacity=".4" transform="translate(0 28)"/><path fill="#a6a6a6" fill-rule="evenodd" d="M112.7 30H110l2.3 1.3q.4-.7.4-1.4" filter="url(#ab)" opacity=".4" transform="translate(0 28)"/><path fill="#a6a6a6" fill-rule="evenodd" d="M107.3 30h2.7l-2.3-1.3q-.4.6-.4 1.4" filter="url(#ac)" opacity=".4" transform="translate(0 28)"/><path fill="#323232" d="M109.6 57a.8.8 0 1 1-1.6 0 .8.8 0 1 1 1.6 0m-2.6 5.3a.5.5 0 1 1-1 0 .5.5 0 1 1 1 0m-2-3a.5.5 0 1 1-1 0 .5.5 0 1 1 1 0m0-3a.5.5 0 1 1-1 0 .5.5 0 1 1 1 0m2-3a.5.5 0 1 1-1 0 .5.5 0 1 1 1 0m8 4a.5.5 0 1 0 1 0 .5.5 0 1 0-1 0m-1-3a.5.5 0 1 0 1 0 .5.5 0 1 0-1 0m-2-2a.5.5 0 1 0 1 0 .5.5 0 1 0-1 0m-2 0a.5.5 0 1 1-1 0 .5.5 0 1 1 1 0"/><rect width="12" height="32" x="104" y="72" fill="#9c9c9c"/><rect width="8" height="28" x="106" y="74" fill="#6b6b6b"/><rect width="8" height="28" x="106" y="74" fill="url(#aj)"/><path fill-rule="evenodd" d="m116 72-2 2h-8v28l-2 2V72z" opacity=".5"/><rect width="8" height="4" x="106" y="84" fill="url(#ak)"/><path fill="url(#al)" fill-rule="evenodd" d="m113.8 74 2.2 1.5 2 .4v10.8l-2.2-.8-2 2.8z" filter="url(#am)" opacity=".7"/><rect width="8" height="10" x="106" y="74" fill="url(#an)"/><rect width="8" height="2" x="106" y="-76" fill="url(#ao)" transform="scale(1 -1)"/><rect width="4" height="1" x="108" y="82" fill="#181818" opacity=".4"/><rect width="4" height="1" x="108" y="80" fill="#181818" opacity=".4"/><rect width="4" height="1" x="108" y="78" fill="#181818" opacity=".4"/><rect width="4" height="1" x="108" y="76" fill="#181818" opacity=".4"/><rect width="4" height="1" x="108" y="77" fill="#fff" opacity=".4"/><rect width="4" height="1" x="108" y="79" fill="#fff" opacity=".4"/><rect width="4" height="1" x="108" y="81" fill="#fff" opacity=".4"/><rect width="4" height="1" x="108" y="75" fill="#fff" opacity=".4"/><path fill="url(#ap)" d="M17 24a5 5 0 0 0-5 5v21.8c16.8-8 40.4-13 66.6-13q11 0 21.4 1.2V29a5 5 0 0 0-5-5z" opacity=".2"/><rect width="88" height="72" x="-100" y="24" fill="url(#aq)" opacity=".3" rx="5" ry="5" transform="scale(-1 1)"/><rect width="88" height="72" x="12" y="24" fill="url(#ar)" opacity=".3" rx="5" ry="5"/><rect width="104" height="12" x="12" y="96" fill="url(#as)" filter="url(#at)" opacity=".3" rx="5" ry="5"/><rect width="88" height="72" x="-100" y="24" fill="url(#au)" opacity=".3" rx="5" ry="5" transform="scale(-1 1)"/><path fill="#fff" d="M12 90v1a5 5 0 0 0 5 5h78a5 5 0 0 0 5-5v-1a5 5 0 0 1-5 5H17a5 5 0 0 1-5-5"/><path fill="#fff" d="M12 90v1a5 5 0 0 0 5 5h78a5 5 0 0 0 5-5v-1a5 5 0 0 1-5 5H17a5 5 0 0 1-5-5" filter="url(#av)"/><rect width="16" height="4" x="16" y="100" fill="url(#aw)" rx="2" ry="2"/><path fill="url(#ax)" d="M18 100a2 2 0 1 0 0 4h1.7l9.8-4z"/><path fill="#fff" d="M16 102.3v.2q.2 1.8 2 2h12a2 2 0 0 0 2-2v-.2a2 2 0 0 1-2 1.7H18a2 2 0 0 1-2-1.7"/><path d="M16 101.8v-.3q.2-1.8 2-2h12a2 2 0 0 1 2 2v.3a2 2 0 0 0-2-1.8H18a2 2 0 0 0-2 1.8"/><path fill="url(#ay)" d="M20 102a2 2 0 1 1-4 0 2 2 0 1 1 4 0" filter="url(#az)" transform="translate(-14 -85)scale(1.84)"/><path fill="#f0ff80" d="M20 102a2 2 0 1 1-4 0 2 2 0 1 1 4 0" filter="url(#az)" transform="matrix(.83 0 0 .83 4 18)"/></svg>