<svg xmlns="http://www.w3.org/2000/svg" xmlns:xlink="http://www.w3.org/1999/xlink" width="128" height="128"><defs><linearGradient id="k"><stop offset="0" stop-color="#00305b"/><stop offset="1" stop-color="#00305b" stop-opacity="0"/></linearGradient><linearGradient id="j"><stop offset="0" stop-opacity=".4"/><stop offset="1" stop-color="#fff"/></linearGradient><linearGradient id="f"><stop offset="0" stop-color="#fff"/><stop offset="1"/></linearGradient><linearGradient id="e"><stop offset="0" stop-color="#08375b"/><stop offset="1" stop-color="#08375b" stop-opacity="0"/></linearGradient><linearGradient id="c"><stop offset="0" stop-color="#72f8ff"/><stop offset="1" stop-color="#fff" stop-opacity="0"/></linearGradient><linearGradient id="d"><stop offset="0" stop-color="#0081ff"/><stop offset="1" stop-color="#56c1ff"/></linearGradient><linearGradient id="b"><stop offset="0"/><stop offset="1" stop-opacity="0"/></linearGradient><linearGradient id="h"><stop offset="0" stop-color="#fff"/><stop offset="1" stop-color="#fff" stop-opacity="0"/></linearGradient><linearGradient id="g"><stop offset="0" stop-color="#fff"/><stop offset="1" stop-color="#fff" stop-opacity="0"/></linearGradient><linearGradient id="i"><stop offset="0" stop-color="#4c7380"/><stop offset="1" stop-color="#fff" stop-opacity="0"/></linearGradient><linearGradient xlink:href="#a" id="q" x1="48.1" x2="48.1" y1="32" y2="3.7" gradientTransform="translate(0 -8)" gradientUnits="userSpaceOnUse"/><linearGradient xlink:href="#b" id="r" x1="37.6" x2="37.6" y1="-14" y2="47.9" gradientUnits="userSpaceOnUse"/><linearGradient xlink:href="#c" id="n" x1="77.4" x2="77.4" y1="-89.9" y2="88.5" gradientUnits="userSpaceOnUse"/><linearGradient xlink:href="#d" id="l" x1="48.6" x2="90.5" y1="91.6" y2="19" gradientUnits="userSpaceOnUse"/><linearGradient xlink:href="#e" id="p" x1="81" x2="81" y1="21" y2="27.2" gradientUnits="userSpaceOnUse"/><linearGradient xlink:href="#f" id="w" x1="109.6" x2="109.6" y1="20.4" y2="12.6" gradientUnits="userSpaceOnUse"/><linearGradient xlink:href="#g" id="m" x1="-2.7" x2="86.2" y1="6.1" y2="99.6" gradientTransform="translate(1)" gradientUnits="userSpaceOnUse"/><linearGradient xlink:href="#h" id="o" x1="-22.8" x2="86.2" y1="16" y2="99.6" gradientTransform="matrix(-1 0 0 1 127 0)" gradientUnits="userSpaceOnUse"/><linearGradient xlink:href="#i" id="y" x1="60.3" x2="60.3" y1="133.6" y2="29" gradientTransform="translate(0 -5)" gradientUnits="userSpaceOnUse"/><radialGradient id="a" cx="63" cy="124" r="162" gradientTransform="matrix(.8 0 0 .7 30 32)" gradientUnits="userSpaceOnUse"><stop offset="0" stop-color="#888"/><stop offset=".1" stop-color="#aaa"/><stop offset=".3" stop-color="#c6c6c6"/><stop offset=".4" stop-color="#d7d7d7"/><stop offset=".5" stop-color="#ddd"/><stop offset=".6" stop-color="#d9d9d9"/><stop offset=".7" stop-color="#cdcdcd"/><stop offset=".7" stop-color="#bbb"/><stop offset=".8" stop-color="#bfbfbf"/><stop offset=".8" stop-color="#cbcbcb"/><stop offset=".9" stop-color="#ddd"/></radialGradient><radialGradient xlink:href="#h" id="s" cx="64" cy="-41.9" r="55" fx="64" fy="-41.9" gradientTransform="matrix(1 0 0 .1 0 14)" gradientUnits="userSpaceOnUse"/><radialGradient xlink:href="#h" id="t" cx="119" cy="-38" r="55" fx="119" fy="-38" gradientTransform="matrix(.2 0 0 .1 99 9)" gradientUnits="userSpaceOnUse"/><radialGradient xlink:href="#h" id="u" cx="-518.4" cy="185.7" r="55" fx="-518.4" fy="185.7" gradientTransform="matrix(.2 0 0 .1 99 9)" gradientUnits="userSpaceOnUse"/><radialGradient xlink:href="#j" id="v" cx="109.4" cy="15.5" r="4.1" fx="109.4" fy="12.7" gradientTransform="matrix(1.4 0 0 1 -40 0)" gradientUnits="userSpaceOnUse"/><radialGradient xlink:href="#k" id="x" cx="63.9" cy="94.6" r="52" fx="63.9" fy="94.6" gradientTransform="matrix(1.8 0 0 .2 -49 77)" gradientUnits="userSpaceOnUse"/><filter id="z" width="1.1" height="1.2" x="0" y="0"><feGaussianBlur stdDeviation="2.4"/></filter></defs><rect width="104" height="80" x="12" y="16" fill="url(#l)" opacity=".5" rx="1.8" ry="1.8"/><path fill="url(#m)" d="M14.6 16q-1.7.2-1.8 1.8v76.5q.2 1.6 1.8 1.7h1q-1.7-.2-1.8-1.7V17.8Q14 16 15.6 16z"/><path fill="url(#n)" d="M113.9 16.5H13.6c-1 .3-1.3 1.4-1.1 2.3v75.6q.2 1 1.1 1l101.9-78q-.5-1-1.6-1"/><path fill="url(#o)" d="M113.5 16q1.6.2 1.7 1.8v76.5q-.2 1.6-1.7 1.7h-1q1.6-.2 1.7-1.7V17.8q-.2-1.7-1.7-1.8z"/><rect width="104" height="51.9" x="12" y="16" fill="url(#p)" opacity=".8" rx="1.8" ry="1.8"/><path fill="url(#q)" d="M9.8 8Q8.2 8.2 8 9.8V24h112V9.8q-.2-1.6-1.7-1.8z"/><path fill="url(#r)" d="M9.8 8Q8.2 8.2 8 9.8V24h112V9.8q-.2-1.6-1.7-1.8zm-.5.6h109.3q1 .1 1.1 1.2v13.6H8.2V9.8q0-1.1 1.2-1.2"/><path fill="url(#s)" d="M9.8 9Q9 9 9 9.8V23h110V9.8q0-.8-.7-.8zm.2 1h108v12H10z"/><path fill="url(#t)" d="M9.8 9Q9 9 9 9.8V23h110V9.8q0-.8-.7-.8zm.2 1h108v12H10z"/><path fill="url(#u)" d="M9.8 9Q9 9 9 9.8V23h110V9.8q0-.8-.7-.8zm.2 1h108v12H10z"/><path fill="none" d="M113.4 16.6H13.6c-1 .3-1.2 1.4-1 2.3v75.5c.3 1 1.5 1.2 2.4 1h99.4c1-.3 1.2-1.5 1-2.4V17.6q-.6-1.2-2-1"/><path fill="url(#v)" stroke="url(#w)" stroke-linecap="round" stroke-linejoin="round" stroke-opacity=".5" stroke-width=".5" d="M113.3 16.5a3.9 3.9 0 1 1-7.8 0 3.9 3.9 0 1 1 7.8 0" opacity=".8"/><text xml:space="preserve" x="17" y="46" fill="#fff" font-family="Bitstream Vera Sans" font-size="25.5" font-weight="700" style="text-align:justify;line-height:125%;-inkscape-font-specification:Bitstream Vera Sans Bold"><tspan x="17" y="46">&gt;_</tspan></text><path fill="url(#x)" d="M12.7 93.3v1q.2 1.6 1.7 1.7h99q1.6-.2 1.8-1.7v-1q-.2 1.6-1.8 1.7h-99q-1.6-.2-1.7-1.7" opacity=".6"/><path fill="url(#y)" d="M24.6 67h77.3q1.7.1 1.8 1.7l12 46.7q-.1 1.7-1.8 1.8H14.6q-1.7-.1-1.8-1.8l10-46.7q.2-1.7 1.8-1.8" filter="url(#z)" opacity=".3" transform="translate(-2 -3)"/></svg>