<svg xmlns="http://www.w3.org/2000/svg" xmlns:xlink="http://www.w3.org/1999/xlink" width="128" height="128" enable-background="new"><defs><linearGradient id="k"><stop offset="0" stop-color="#fff"/><stop offset="1" stop-color="#fff" stop-opacity="0"/></linearGradient><linearGradient id="f"><stop offset="0" stop-color="#fff"/><stop offset="1" stop-color="#fff" stop-opacity="0"/></linearGradient><linearGradient id="j"><stop offset="0" stop-color="#dbeef2"/><stop offset="1" stop-color="#dbeef2" stop-opacity="0"/></linearGradient><linearGradient id="b"><stop offset="0" stop-color="#1a5187"/><stop offset="1" stop-color="#679ee0"/></linearGradient><linearGradient id="d"><stop offset="0" stop-color="#003d7b"/><stop offset="1" stop-color="#003d7b" stop-opacity="0"/></linearGradient><linearGradient id="c"><stop offset="0" stop-color="#34608f"/><stop offset="1" stop-color="#34608f" stop-opacity="0"/></linearGradient><linearGradient id="a"><stop offset="0" stop-color="#1a5187"/><stop offset="1" stop-color="#619de6"/></linearGradient><linearGradient xlink:href="#a" id="r" x1="13" x2="13" y1="967" y2="932" gradientUnits="userSpaceOnUse"/><linearGradient xlink:href="#b" id="u" x1="13" x2="13" y1="987" y2="937" gradientUnits="userSpaceOnUse"/><linearGradient xlink:href="#c" id="J" x1="3" x2="3" y1="968" y2="953" gradientUnits="userSpaceOnUse"/><linearGradient xlink:href="#d" id="G" x1="55" x2="55" y1="1036" y2="1032" gradientUnits="userSpaceOnUse"/><linearGradient xlink:href="#f" id="v" x1="84" x2="84" y1="0" y2="21" gradientUnits="userSpaceOnUse"/><linearGradient id="i"><stop offset="0" stop-color="#eeecec"/><stop offset="0" stop-color="#f4f4f4"/><stop offset="1" stop-color="#f6f5f5"/></linearGradient><linearGradient id="l"><stop offset="0" stop-color="#fff"/><stop offset="1" stop-color="#fff" stop-opacity="0"/></linearGradient><linearGradient xlink:href="#i" id="C" x1="72" x2="72" y1="0" y2="116" gradientTransform="rotate(90 -495.8 519.5)" gradientUnits="userSpaceOnUse"/><linearGradient xlink:href="#i" id="z" x1="72" x2="72" y1="0" y2="116" gradientTransform="rotate(90 -495.8 519.5)" gradientUnits="userSpaceOnUse"/><radialGradient xlink:href="#j" id="I" cx="47" cy="27" r="4" fx="47" fy="27" gradientTransform="translate(-6.7 932.5)scale(1.14)" gradientUnits="userSpaceOnUse"/><radialGradient xlink:href="#k" id="K" cx="76" cy="29" r="58" fx="117" fy="40" gradientTransform="rotate(-5 130 2)scale(1 .37)" gradientUnits="userSpaceOnUse"/><radialGradient xlink:href="#j" id="M" cx="47" cy="27" r="4" fx="49" fy="26" gradientTransform="matrix(.6 0 0 .6 -21.1 920.1)" gradientUnits="userSpaceOnUse"/><radialGradient xlink:href="#j" id="N" cx="47" cy="27" r="4" fx="49" fy="26" gradientTransform="matrix(.6 0 0 .6 -23.1 920.1)" gradientUnits="userSpaceOnUse"/><radialGradient xlink:href="#j" id="O" cx="47" cy="27" r="4" fx="49" fy="26" gradientTransform="matrix(.6 0 0 .6 -21.1 920.1)" gradientUnits="userSpaceOnUse"/><radialGradient xlink:href="#l" id="D" cx="64" cy="64" r="48" fx="64" fy="47" gradientTransform="matrix(.08 1.68 -1.38 .07 42.4 967)" gradientUnits="userSpaceOnUse"/><radialGradient xlink:href="#l" id="B" cx="64" cy="64" r="48" fx="64" fy="47" gradientTransform="matrix(.08 1.68 -1.38 .07 42.4 967)" gradientUnits="userSpaceOnUse"/><filter id="H" width="1" height="2" x="0" y="0" color-interpolation-filters="sRGB"><feGaussianBlur stdDeviation="1"/></filter><filter id="m" width="1" height="2" x="0" y="0"><feGaussianBlur stdDeviation="1"/></filter><filter id="L"><feGaussianBlur/></filter><filter id="x" color-interpolation-filters="sRGB"><feGaussianBlur stdDeviation="1"/></filter><filter id="F" width="1" height="1" x="0" y="0"><feGaussianBlur stdDeviation="3"/></filter><clipPath id="E" clipPathUnits="userSpaceOnUse"><rect width="116" height="32" x="6" y="941" fill="#155293" rx="4" ry="4"/></clipPath><clipPath id="w" clipPathUnits="userSpaceOnUse"><rect width="248" height="86" x="-175" y="995" opacity="0"/></clipPath></defs><g transform="translate(0 -924.4)"><path d="M7 108.1h114c2.2 0 4 .9 4 2 0 1-1.8 1.9-4 1.9-37 .6-74.7.8-114 0-2.2 0-4-.9-4-2 0-1 1.8-1.9 4-1.9" filter="url(#m)" transform="translate(0 924.4)"/><path fill="url(#r)" d="M9 935.4c-1.7 0-3 1.2-3 3v89.4c0 2.5 2 4.6 4.6 4.6h106.8c2.5 0 4.6-2 4.6-4.6V946c0-2.6-2-4.6-4.6-4.6H41v-3a3 3 0 0 0-3-3z"/><path fill="url(#u)" d="M9 935.4c-1.7 0-3 1.2-3 3v89.4c0 2.5 2 4.6 4.6 4.6h106.8c2.5 0 4.6-2 4.6-4.6V946c0-2.6-2-4.6-4.6-4.6H41v-3a3 3 0 0 0-3-3z"/><path fill="url(#v)" d="M8.5 12a2.5 2.5 0 0 0-2.4 2.5v88.9c0 2 2.6 3.5 4.5 3.5h106.8c2 0 3.5-1.6 3.5-3.5l1-81.3c0-2-2-4-4-4H41q-.9-.1-1-1.1v-2c-.1-.9-.2-3-2-3zm0 .8H38c1.2 0 1.2 1 1.2 2.2v2a2 2 0 0 0 1.8 1.8h77c1.6 0 3.3 1.7 3.3 3.3l-1 81.3c0 1.5-1.3 2.8-2.8 2.8H9.6a2.7 2.7 0 0 1-2.8-2.8V14.5q.2-1.6 1.7-1.7" transform="translate(0 924.4)"/><g clip-path="url(#w)" transform="translate(105.3 -81.9)"><path d="M17.4 12v104.2h57.3c4.2 0 7.8-4.9 20.9-17.1 7.5-7 10.4-10.9 13.2-13.6 1.7-1.7 3.2-3 3.2-7.2V12z" filter="url(#x)" transform="rotate(90 -495.8 519.5)"/><path fill="#fff" d="M11.7 1032.2h-104v57.5c0 1.7.6 4 3.6 7 8.7 9 19.9 20.3 27.2 27.5 2.4 2.5 4.5 3 6.7 3h66.5z"/><path fill="url(#z)" d="M10.7 1033.7q0-.5-.5-.5h-100q-1.3.2-1.5 1.5v55.2q.2 2.7 1.6 4.4a696 696 0 0 0 28.8 29.8 9 9 0 0 0 5 2.1h66.1q.5 0 .5-.5z"/><path fill="url(#B)" d="M10.7 1033.7q0-.5-.5-.5h-100q-1.3.2-1.5 1.5v58.5c4.5 6.6 22 22.6 31 31.6 1.6 1.5.3.5 1.6 1.4h69q.4 0 .4-.5z"/></g><g clip-path="url(#w)" transform="translate(103.3 -75.9)"><path d="M17.4 12v104.2h57.3c4.2 0 7.8-4.9 20.9-17.1 7.5-7 10.4-10.9 13.2-13.6 1.7-1.7 3.2-3 3.2-7.2V12z" filter="url(#x)" transform="rotate(90 -495.8 519.5)"/><path fill="#fff" d="M11.7 1032.2h-104v57.5c0 1.7.6 4 3.6 7 8.7 9 19.9 20.3 27.2 27.5 2.4 2.5 4.5 3 6.7 3h66.5z"/><path fill="url(#C)" d="M10.7 1033.7q0-.5-.5-.5h-100q-1.3.2-1.5 1.5v55.2q.2 2.7 1.6 4.4a696 696 0 0 0 28.8 29.8 9 9 0 0 0 5 2.1h66.1q.5 0 .5-.5z"/><path fill="url(#D)" d="M10.7 1033.7q0-.5-.5-.5h-100q-1.3.2-1.5 1.5v58.5c4.5 6.6 22 22.6 31 31.6 1.6 1.5.3.5 1.6 1.4h69q.4 0 .4-.5z"/></g><path fill="#16375b" d="M46 966.6c0 2.5-2 4.5-4.6 4.6H6v35.2h116v-39.5c0-2.5-2-4.5-4.6-4.5H50.5q-4.7.2-4.5 4.2" clip-path="url(#E)" filter="url(#F)"/><path fill="#6193cf" d="M50.5 962.4q-4.6.2-4.5 4.2c0 2.6-2 4.8-4.6 4.8H5q-1.8 0-2 2v59a3 3 0 0 0 3 3h116c2.1 0 3-1.4 3-3V967c0-2.6-2-4.6-4.6-4.6z"/><path fill="#d5f2f8" d="M50 962.4c-2.8.1-4 2-4 4.5 0 2.4-2.2 4.5-4.5 4.5H5a2 2 0 0 0-2 2c0-.8 1-1 2-1h36.5c2.8 0 5.5-2.4 5.5-5.5q0-3.5 3-3.5h70.4c2.3 0 4.6 1.7 4.6 4 0-2.8-1.8-5-4.6-5z" color="#000" enable-background="accumulate" font-family="Sans" font-weight="400" overflow="visible" style="text-indent:0;text-align:start;line-height:normal;text-transform:none;block-progression:tb;marker:none;-inkscape-font-specification:Sans"/><rect width="122" height="4" x="3" y="1032" fill="url(#G)" filter="url(#H)" rx="2" ry="2" transform="matrix(1 0 0 2.05 0 -1088.4)"/><path fill="url(#I)" d="M49.5 962.4a3.5 3.5 0 0 0-3.5 4h1v-.5c0-1.4 1.1-2.5 2.5-2.5h.4l.1-.5v-.5z"/><path fill="url(#J)" d="M3.5 972.4q.5 0 .5.5v60a.5.5 0 1 1-1 0v-60q0-.5.5-.5"/><path fill="url(#K)" d="M8.5 12C7.3 12 6 13.3 6 14.6v88.9c0 2 1.7 3.5 3.6 3.5h107.8c2 0 3.5-1.6 3.5-3.5l1-81.3c0-2-2-4-4-4H41q-.9-.1-1-1.1v-2c-.1-.9-2.2-3-4-3zm0 .8H36c1.2 0 3.2 1 3.2 2.2v2a2 2 0 0 0 1.8 1.8h77c1.6 0 3.3 1.7 3.3 3.3l-1 81.3c0 1.5-1.3 2.8-2.8 2.8H9.6a2.7 2.7 0 0 1-2.8-2.8V14.5q.2-1.6 1.7-1.7" transform="translate(0 924.4)"/><g filter="url(#L)" transform="translate(0 1)"><path fill="url(#M)" d="M8.6 935.4a2.6 2.6 0 0 0-2.6 3h.8v-.4q.2-1.7 1.8-1.9H9v-.7z"/></g><g filter="url(#L)" transform="matrix(-1 0 0 1 44 1)"><path fill="url(#N)" d="M6.6 935.4a2.6 2.6 0 0 0-2.6 3h.8v-.4q.2-1.7 1.8-1.9H7v-.7z"/></g><g filter="url(#L)" transform="matrix(-1 0 0 1 127 7)"><path fill="url(#O)" d="M8.6 935.4a2.6 2.6 0 0 0-2.6 3h.8v-.4q.2-1.7 1.8-1.9H9v-.7z"/></g></g></svg>