<svg xmlns="http://www.w3.org/2000/svg" xmlns:xlink="http://www.w3.org/1999/xlink" xml:space="preserve" width="128" height="128" enable-background="new 0 0 116 116" overflow="visible" viewBox="0 0 116 116"><defs><linearGradient id="g"><stop offset="0" stop-color="#fff"/><stop offset="1" stop-color="#fff" stop-opacity="0"/></linearGradient><linearGradient id="f"><stop offset="0" stop-color="#fff"/><stop offset="1" stop-color="#fff" stop-opacity="0"/></linearGradient><linearGradient id="e"><stop offset="0" stop-color="#fff"/><stop offset="1" stop-color="#fff" stop-opacity="0"/></linearGradient><linearGradient id="k"><stop offset="0" stop-color="#3cc1ee"/><stop offset="1" stop-color="#141b7c"/></linearGradient><linearGradient id="b"><stop offset="0" stop-color="#fff"/><stop offset="1" stop-color="#fff" stop-opacity="0"/></linearGradient><linearGradient id="j"><stop offset="0" stop-color="#113a68"/><stop offset="1" stop-color="#1e63b1" stop-opacity="0"/><stop offset="1" stop-color="#1e63b1" stop-opacity="0"/></linearGradient><linearGradient id="c"><stop offset="0" stop-color="#4fd6ff"/><stop offset="1" stop-color="#4fd6ff" stop-opacity="0"/></linearGradient><linearGradient xlink:href="#a" id="K" x1="-21" x2="-754" y1="501" y2="361" gradientTransform="matrix(.11 0 0 .11 155 8)" gradientUnits="userSpaceOnUse"/><linearGradient xlink:href="#a" id="J" x1="-1086" x2="-475" y1="539" y2="376" gradientTransform="matrix(.11 0 0 .11 155 8)" gradientUnits="userSpaceOnUse"/><linearGradient xlink:href="#b" id="H" x1="-934" x2="-807" y1="544" y2="70" gradientTransform="translate(940 -233)" gradientUnits="userSpaceOnUse"/><linearGradient xlink:href="#c" id="A" x1="-1101" x2="-1101" y1="458" y2="380" gradientUnits="userSpaceOnUse"/><linearGradient xlink:href="#e" id="L" x1="98" x2="38" y1="52" y2="12" gradientUnits="userSpaceOnUse"/><linearGradient xlink:href="#e" id="P" x1="109" x2="-5" y1="-10" y2="7" gradientUnits="userSpaceOnUse"/><linearGradient xlink:href="#e" id="Q" x1="120" x2="-7" y1="2" y2="9" gradientUnits="userSpaceOnUse"/><linearGradient xlink:href="#f" id="R" x1="101" x2="96" y1="46" y2="59" gradientTransform="translate(1 -2)" gradientUnits="userSpaceOnUse"/><linearGradient xlink:href="#g" id="T" x1="22" x2="52" y1="-3" y2="36" gradientTransform="matrix(.61 0 0 .61 17 21)" gradientUnits="userSpaceOnUse"/><linearGradient xlink:href="#h" id="l" x1="179" x2="179" y1="60" y2="112" gradientUnits="userSpaceOnUse"/><linearGradient id="i"><stop offset="0" stop-color="#bababa"/><stop offset="1" stop-color="#e7e7e7"/></linearGradient><linearGradient id="h"><stop offset="0" stop-color="#fff"/><stop offset="1" stop-color="#fff" stop-opacity="0"/></linearGradient><linearGradient xlink:href="#i" id="m" x1="20" x2="20" y1="56" y2="0" gradientTransform="matrix(.97 0 0 .98 -4 -8)" gradientUnits="userSpaceOnUse"/><linearGradient xlink:href="#h" id="t" x1="179" x2="179" y1="60" y2="112" gradientUnits="userSpaceOnUse"/><filter id="z" width="1" height="2" x="0" y="0"><feGaussianBlur stdDeviation="3"/></filter><filter id="D" width="1" height="1" x="0" y="0"><feGaussianBlur stdDeviation="3"/></filter><filter id="S" width="1" height="1" x="0" y="0"><feGaussianBlur/></filter><filter id="I"><feGaussianBlur/></filter><filter id="w"><feGaussianBlur stdDeviation="1"/></filter><filter id="s"><feGaussianBlur/></filter><filter id="v"><feGaussianBlur stdDeviation="1"/></filter><radialGradient id="a" cx="299" cy="-291" r="17" fx="297" fy="-290" gradientTransform="rotate(16 1096 -507)scale(.86 -1)" gradientUnits="userSpaceOnUse"><stop offset="0" stop-color="#fff"/><stop offset="1" stop-color="#91d3ff" stop-opacity="0"/></radialGradient><radialGradient xlink:href="#j" id="y" cx="99" cy="186" r="63" fx="99" fy="186" gradientTransform="matrix(1 0 0 .17 0 155)" gradientUnits="userSpaceOnUse"/><radialGradient xlink:href="#k" id="x" cx="139" cy="148" r="92" fx="135" fy="217" gradientUnits="userSpaceOnUse"/><radialGradient xlink:href="#k" id="q" cx="114" cy="23" r="3" fx="112" fy="21" gradientUnits="userSpaceOnUse"/><clipPath id="u" clipPathUnits="userSpaceOnUse"><rect width="112" height="96" x="140" y="16" fill="none" stroke="url(#l)" stroke-dashoffset="1" stroke-linecap="round" stroke-linejoin="round" stroke-width="2" rx="4" ry="4"/></clipPath></defs><rect width="109" height="94" x="4" y="7" fill="url(#m)" rx="4" ry="4"/><rect width="101" height="51" x="8" y="47" fill="#fff" rx="0" ry="0"/><rect width="101" height="35" x="8" y="23" fill="#fff" rx="0" ry="0"/><path fill="url(#q)" d="M117 23a3 3 0 1 1-7 0 3 3 0 1 1 7 0" filter="url(#s)" transform="matrix(1.15 0 0 1.16 -30 -11)"/><rect width="112" height="96" x="140" y="16" fill="none" stroke="url(#t)" stroke-dashoffset="1" stroke-linecap="round" stroke-linejoin="round" stroke-width="2" clip-path="url(#u)" filter="url(#v)" rx="4" ry="4" transform="matrix(.97 0 0 .98 -132 -8)"/><path fill="#11196b" d="M110 59a49 49 0 1 1-98 0 49 49 0 1 1 98 0" filter="url(#w)" transform="matrix(.7 0 0 .7 15 15)"/><path fill="url(#x)" d="M231 148a92 92 0 1 1-185 0 92 92 0 1 1 185 0" transform="matrix(.36 0 0 .36 6 2)"/><path fill="url(#y)" d="M162 186a63 10 0 1 1-126 0 63 10 0 1 1 126 0" filter="url(#z)" transform="matrix(.35 0 0 .44 22 7)"/><path fill="url(#A)" d="M-1178 380a82 82 0 0 0 159 0c-14 31-44 45-80 45-35 0-66-14-79-45" filter="url(#D)" transform="matrix(.38 0 0 .38 471 -78)"/><path fill="url(#H)" d="M100 202h-2l-1-1h-2l1-1-3-1-10-2q0-1 0 0h2q2-1-1-1l-2-1-2-1-3-3q0-3 2-3l1-1h1v-1q3 0 3-2l1-1 1-2 1-1q2 1 0-1-1-3-5-2-4-1-3-3l1-1 1-2 3-3 2-2 1-1 3-1 6-1h7q1 1 4-1l2 1 1 1h1l2-1 1-1q-1 0 0 0h1l1 1q0-1 0 0h2l1 1 2 1 2 1h2l2 1q2-1 0 0l-1 2 1 1v2h6l1 1 3 1h1l2 1-1 1v2l-1 2-1 1-1 1 1 1h1l-1 1q1 0 0 0v1l-1 1v1l-1 2-2 2-1 2q1 0 0 0l-3 1q-4 3-15 3l-10 2-2 1q1 3-2 2m84-43 1-3 8-19 2-6 1-5 4-18V94l-4-21 2 3 2 8q6 27-4 54c-2 6-7 15-10 18zM50 143l-2-1-2-1-4-3h1v-1l1 1h1l2 1 5 3-1 1zm-10-5-2-1-2-2 1-1h1l2 1v1zq1 2-1 0m-3-8v-1zm32 0-2-3h1l2-1 1 1-1 3zm120-2 1-6 3-12 1-4 1 4-1 9-1 4-2 5zm-122-6h-2q-2 1-2-2l-5-6q-3-2-4-9l1-6 1-1v-1l1-3 2-2v-1l1-1 1-3 1-5 1-1 1-2 1-3v-2l1 2 1 5 1 2 2 2 1-1 4-2 1-2v-3l-1-2h2l2-1h5l1 1 1 1v2h4l1-2 1 1h1l1 1 1 2h1l1 1h1l1 1 1 2q1 2 7 3l5 3q0 1 0 0l1 1v2l-1 2v2l-1 3-1 3-1 2v5l-1 1h-4l-1-1h-2l-4-1-1-1h-1l-3-1h-7l-1 1-2 1-1 1v2l-1 1v-1h-1l-1-1-1-1v4l-1 1-1 3q1 1-2 3h-4q0 2-2 1m11-8q0-1 0 0m-41-12q0 1 0 0m16-26 2-2 1-1 1-2v-2l1-1 1-1 4-4 10-4h1l1 1h2l3-1q1 0 0 0v1h-1q-1-1 0 0l-1 1-1 1h-1l-3 1-2 3v2h1l-2 1-2 1q-4 3-4 1l-1-1h-1q-3 0-3 2l-1 1-1 1-2 2zm-8-3q-1 0 0 0m39 0q1 0 0 0m-34-4h4l-3 1zm44 0-2-1-1-1 5 2zm8 0 1-1zm93-2-9-14-3-5q-1-2 2 1l2 3 9 18zm-89 0h2zm-5 0h1q2 0 0 0zm3 0h1zm6 0v1zm2-1h1l2-1h11q2 0 0 0l-1 1zm2-1q1 0 0 0m13-1v-2l1-3 1-1 1-1 1-1v-1h1l1-1 1-1h1l2-1h1l1-1 3-1h2l-1 1-2 2-2 1-1 1-1 2-2 1-1 2q-4 4-7 4m-25-4-1-3v1l-1 1v1l-1 1-1-1 1-1v-3l-1-1h4l2 1v3l-1 1v2zm-18 0h3-1zm26-1-1-1v-1l-1-2-1-1-2-2v-1l1-1 1-1-2-3h-1l1-1h2l1-1 1 1 3 2 2 1 2 2 1 1 2 1h2q1 2-1 3v2q0 2-2 1l-2 1zm-20 0h2zm-12-2 2-1h2q3 0 1 1h-1l-2 1zm48 1h1zm39-3-1-2 1-2 1 4zm3-2h-1v-1l-2-6-2-3-4-3-5-5q-1-2-3-2l-3-2h-2l-1 2q-3 1-2 3v1l-2-1-2-1v2l-1 2v7l-3 4-1 2-4 2v-2l1-2 4-3 1-1 1-1v-4l-1-2h-3l-1 1-3 1-1 1v1l-2-1-2-2q-4-1-3-3-1-3 2-3l3-3-3-3-4-1v1h-1l-1-1-3-1-3-1q-6-1-8-4l-1-1h-1v-3h-1 1l1-1v-1h1q2-1-1-2l-1-1h1q3 1 4-1h-1l-3-1q-3 0-2 1h-2l-3 1h-1l-1 1-2 1h-1l1-2 1-1-2-1h-4q-5 0-5-2l5-1 2-1 25-1q18 3 33 10 21 11 36 29 2 3-4-1l-3-3v1h-2v1l1 1-3-2h-1l2 6-1 5-1 2q0 3-2 0m-80 0v1zm14 0h-3l-5-1-1-1 1 1h8zm-9-9v-3l2 1 1 1v2l-1 1zm6-1-2-1h-1 2zm-2-3v-2l1 1zm1-6q1 0 0 0m2-1v-2q-2-2 0-2h2v3l-1 1v1zm19-4v-1l2 1zm-18-6v-1l1 2q-1 1-1-1m-15-7 1-1zq0 1 0 0m-7-1h-3l-2-1v-1l1-1h1l2 2q3 0 2 1zm3-1h3zm-9-3 2-1h1zq-1 0 0 0" filter="url(#I)" transform="matrix(.33 0 0 .33 23 22)"/><path fill="url(#J)" d="M53 85q1 0 0 0v-6l-1-1-2-2h-1v-1l-1-2-1-1 1-1-1-1h1v-1h1v-3h-1q-1 0 0 0h-1l-2-2v1-2h-1v-1h-1l-1-1-1-1-1-1-2-2v-1l-1-2v-5h-1v5-10l1-2 2-2v-1 1h1v-3h1v-1h1v-1l1-1h-1l1-1v-1q0-1 0 0v-1h1-3 1v-1q1 0 0 0h1l1-1h1q0 1 0 0h1l1-1 1 1v1l-1 1h1v1h1v2h1l1 1v-1 1h1v-1h1v1h1q0-1 0 0l-1 1h-1v1h-1v-1 1h-1l-1 1v2h1l1 1v2h1v-1l1-1v-2h1v-1l2 2h1v-1 1q1 0 0 0l1 1v1h1-1l1 1v-1 1h1l-1 1h-3v1h-1l-1 1h1l2-1h-1v1h1v1q1 0 0 0l-1 1 1-1h-2l-1 1v1h-1l-1 1h-1v2l-1 1h-1l-1 1h-1l-1-1h-1q-1 0 0 0v1l-1-1h-2l-1 1v3l1 2h1v-1h2v1l-1 1v-1 2h1l1 1v3h2l1 1h1v-1h2v-1 2q1 0 0 0l1-1h1l1 1h3v1h1v1h2l2 1 1 1-1 1v1h1l1-1h2v1h1l1-1 1 1h2l-1 2-2 2v2l-1 1-1 1-3 1v1h-1l-1 1h-3v1h1-2l-1 1h-1v1q-1 0 0 0h-2m33-18 1-4v-4h-1v1-1l-2 1v1l-1 1-1 1-1-1h-1v-1h-1v-1h-1V46l1-1 1-2h1v-1l1 1v1l1-1h1v-5l-1-1v1h-1l-1-1v-2l-1-1v-1h-1l-1-1 1 2h1-1l1 1 1 1v2l1 1-1-1h-3l1 1h2v1h-1l-1-1-1 1v2l1 1-1 2h-1q0 1 0 0l-1-1-1-1 1-1 1-1-2-1v-5h-1 1v-2l-1-1q1 0 0 0l-1-1-2-1h-1l1 1 2 1v1q0-1 0 0h1v1q2 0 0 0h-1l-1-1v1h-1v-1l1 1-1-1v-1l-1-1-2-2v-1 1l1-1h1v1h1v-1h-1l-1-1-1-1h-1q1 0 0 0v-1h-3 3-3v-1h-1q0 1 0 0h-4q-1 0 0 0h1-9l-1 1h-1l-1 1-3 1h1v-1h-1l1-1h1l1-1h2a31 31 0 0 1 30 8l6 9-1-1v1l2 2a29 29 0 0 1 2 15zm-35-7q-1 0 0 0l2 1h-2m-2-1h-1v-1h-2 2zm2-10q0 2 0 0m6-3q0 1 0 0m3-1q0-1 0 0m-1 0v-1l1-1v1q0-1 0 0h1zm-3-1q0-1 0 0 1 0 0 0m16-5q0 1 0 0v-1zm2-1h-1v-1h-1q0-1 0 0h1zh1zm-13 0-1-2h-1v-2l-1-1v-1l-1-1h-1 1-1v-1h1v-1h3-1 2v1q0-1 0 0h1v1h1v1h-1 1l1 1-1-1v1h1l-1 1v1h-1v3zm-6-1h-1zl1-1-1-1v-1l-1 1v-2q1 0 0 0v1-1h1v1h1l1 1v1h1v1h-1q0-2 0 0v1q-1-1 0 0zm-4-1v1q1 0 0 0zm15-1h1zm-1-1q0 2 0 0m-16-1h1v-1h1q0 2 0 0v2zm5-1q2 0 0 0m0-1q0-1 0 0h1q0-1 0 0zl1-1h1v1h-1zm-6-1h1l-1 1zm0-4"/><path fill="url(#K)" d="M53 85q1 0 0 0v-6l-1-1-2-2h-1v-1l-1-2-1-1 1-1-1-1h1v-1h1v-3h-1q-1 0 0 0h-1l-2-2v1-2h-1v-1h-1l-1-1-1-1-1-1-2-2v-1l-1-2v-5h-1v5-10l1-2 2-2v-1 1h1v-3h1v-1h1v-1l1-1h-1l1-1v-1q0-1 0 0v-1h1-3 1v-1q1 0 0 0h1l1-1h1q0 1 0 0h1l1-1 1 1v1l-1 1h1v1h1v2h1l1 1v-1 1h1v-1h1v1h1q0-1 0 0l-1 1h-1v1h-1v-1 1h-1l-1 1v2h1l1 1v2h1v-1l1-1v-2h1v-1l2 2h1v-1 1q1 0 0 0l1 1v1h1-1l1 1v-1 1h1l-1 1h-3v1h-1l-1 1h1l2-1h-1v1h1v1q1 0 0 0l-1 1 1-1h-2l-1 1v1h-1l-1 1h-1v2l-1 1h-1l-1 1h-1l-1-1h-1q-1 0 0 0v1l-1-1h-2l-1 1v3l1 2h1v-1h2v1l-1 1v-1 2h1l1 1v3h2l1 1h1v-1h2v-1 2q1 0 0 0l1-1h1l1 1h3v1h1v1h2l2 1 1 1-1 1v1h1l1-1h2v1h1l1-1 1 1h2l-1 2-2 2v2l-1 1-1 1-3 1v1h-1l-1 1h-3v1h1-2l-1 1h-1v1q-1 0 0 0h-2m33-18 1-4v-4h-1v1-1l-2 1v1l-1 1-1 1-1-1h-1v-1h-1v-1h-1V46l1-1 1-2h1v-1l1 1v1l1-1h1v-5l-1-1v1h-1l-1-1v-2l-1-1v-1h-1l-1-1 1 2h1-1l1 1 1 1v2l1 1-1-1h-3l1 1h2v1h-1l-1-1-1 1v2l1 1-1 2h-1q0 1 0 0l-1-1-1-1 1-1 1-1-2-1v-5h-1 1v-2l-1-1q1 0 0 0l-1-1-2-1h-1l1 1 2 1v1q0-1 0 0h1v1q2 0 0 0h-1l-1-1v1h-1v-1l1 1-1-1v-1l-1-1-2-2v-1 1l1-1h1v1h1v-1h-1l-1-1-1-1h-1q1 0 0 0v-1h-3 3-3v-1h-1q0 1 0 0h-4q-1 0 0 0h1-9l-1 1h-1l-1 1-3 1h1v-1h-1l1-1h1l1-1h2a31 31 0 0 1 30 8l6 9-1-1v1l2 2a29 29 0 0 1 2 15zm-35-7q-1 0 0 0l2 1h-2m-2-1h-1v-1h-2 2zm2-10q0 2 0 0m6-3q0 1 0 0m3-1q0-1 0 0m-1 0v-1l1-1v1q0-1 0 0h1zm-3-1q0-1 0 0 1 0 0 0m16-5q0 1 0 0v-1zm2-1h-1v-1h-1q0-1 0 0h1zh1zm-13 0-1-2h-1v-2l-1-1v-1l-1-1h-1 1-1v-1h1v-1h3-1 2v1q0-1 0 0h1v1h1v1h-1 1l1 1-1-1v1h1l-1 1v1h-1v3zm-6-1h-1zl1-1-1-1v-1l-1 1v-2q1 0 0 0v1-1h1v1h1l1 1v1h1v1h-1q0-2 0 0v1q-1-1 0 0zm-4-1v1q1 0 0 0zm15-1h1zm-1-1q0 2 0 0m-16-1h1v-1h1q0 2 0 0v2zm5-1q2 0 0 0m0-1q0-1 0 0h1q0-1 0 0zl1-1h1v1h-1zm-6-1h1l-1 1zm0-4"/><path fill="none" stroke="url(#L)" stroke-dashoffset="1" stroke-linecap="round" stroke-linejoin="round" stroke-width="4" d="M95 5A83 83 0 1 1-72 5 83 83 0 1 1 95 5" transform="rotate(45 -34 94)scale(.24 .4)"/><path fill="none" stroke="url(#P)" stroke-dashoffset="1" stroke-linecap="round" stroke-linejoin="round" stroke-width="3" d="M95 5A83 83 0 1 1-72 5 83 83 0 1 1 95 5" transform="rotate(150 23 36)scale(.24 .4)"/><path fill="none" stroke="url(#Q)" stroke-dashoffset="1" stroke-linecap="round" stroke-linejoin="round" stroke-width="3" d="M95 5A83 83 0 1 1-72 5 83 83 0 1 1 95 5" transform="rotate(255 50 8)scale(.24 .4)"/><path fill="url(#R)" fill-rule="evenodd" d="m102 44-5 7 3 3z" filter="url(#S)" transform="rotate(-5 308 -176)scale(.64)"/><path fill="url(#T)" d="M57 23q-24 1-31 22 5 7 16 10l1-2q8-27 20-30z"/></svg>