<svg xmlns="http://www.w3.org/2000/svg" width="48" height="48"><radialGradient id="a" cx="25" cy="37" r="16" gradientTransform="matrix(1 0 0 .6 0 15)" gradientUnits="userSpaceOnUse"><stop offset="0"/><stop offset="1" stop-opacity="0"/></radialGradient><radialGradient id="b" cx="27" cy="28" r="22" gradientTransform="matrix(1.24 0 0 1.35 -7 -10)" gradientUnits="userSpaceOnUse"><stop offset="0" stop-color="#9cbcde"/><stop offset="1" stop-color="#204a87"/></radialGradient><radialGradient id="c" cx="-20" cy="17" r="9" gradientTransform="matrix(4.45 0 0 6.87 67 -105)" gradientUnits="userSpaceOnUse"><stop offset="0" stop-color="#fff"/><stop offset="1" stop-color="#b8b8b8"/></radialGradient><path fill="url(#a)" fill-rule="evenodd" d="M40.9 36.8a15.8 9.4 0 1 1-31.5 0 15.8 9.4 0 1 1 31.5 0" transform="matrix(1.17 0 0 .6 -5 20)"/><path fill="url(#b)" stroke="#204a87" d="M45.8 23.8a21.9 21.9 0 1 1-43.8 0 21.9 21.9 0 1 1 43.8 0z" transform="matrix(.94 0 0 .94 2 2)"/><g stroke="#fff"><path fill="none" stroke-width="3" d="M43.4 24.5a18.8 18.8 0 1 1-37.7 0 18.8 18.8 0 1 1 37.7 0z"/><path fill="url(#c)" d="m-20.2 5.9-3.3.3-3.9 1.1v5.3h.2q1.7-1 3.3-1.6t3-.6 2 .7.9 1.7q0 .8-.5 1.4l-1.3 1.6-1.1 1q-1.8 1.6-2.4 2.7a5 5 0 0 0-.6 2.4v.9h6.3V22q0-.8.4-1.3t1.5-1.6l1-1q1.7-1.5 2.4-2.7.6-1.4.6-3 0-3.1-2.2-4.8a10 10 0 0 0-6.3-1.7zM-23.8 25v6.1h6.2v-6h-6.2z" transform="matrix(.85 0 0 .84 42 9)"/></g></svg>