<svg height="48" width="48" xmlns="http://www.w3.org/2000/svg" xmlns:xlink="http://www.w3.org/1999/xlink"><radialGradient id="a" cx="25.125" cy="36.75" gradientTransform="matrix(1 0 0 .595238 0 14.875)" gradientUnits="userSpaceOnUse" r="15.75"><stop offset="0"/><stop offset="1" stop-opacity="0"/></radialGradient><radialGradient id="b" cx="26.544321" cy="28.458725" gradientTransform="matrix(1.238342 .00595485 -.00650776 1.351272 -6.992513 -9.744842)" gradientUnits="userSpaceOnUse" r="22.376116"><stop offset="0" stop-color="#9cbcde"/><stop offset="1" stop-color="#204a87"/></radialGradient><radialGradient id="c" cx="-19.515638" cy="16.855663" gradientTransform="matrix(4.445991 0 0 6.8665 67.25071 -104.6679)" gradientUnits="userSpaceOnUse" r="8.753643"><stop offset="0" stop-color="#fff"/><stop offset="1" stop-color="#b8b8b8"/></radialGradient><path d="m40.875 36.75a15.75 9.375 0 1 1 -31.5 0 15.75 9.375 0 1 1 31.5 0z" fill="url(#a)" fill-rule="evenodd" opacity=".630682" transform="matrix(1.173803 0 0 .6 -5.004403 20.325)"/><path d="m45.785164 23.825787a21.876116 21.876116 0 1 1 -43.7522317 0 21.876116 21.876116 0 1 1 43.7522317 0z" fill="url(#b)" stroke="#204a87" transform="matrix(.938442 0 0 .93868 1.564075 1.633906)"/><g stroke="#fff"><path d="m45.785164 23.825787a21.876116 21.876116 0 1 1 -43.7522317 0 21.876116 21.876116 0 1 1 43.7522317 0z" fill="none" opacity=".960227" stroke-width="3.030774" transform="matrix(.855103 0 0 .855213 3.555288 3.625019)"/><path d="m-20.25 5.875c-1.059019.0000263-2.147637.1232356-3.28125.34375-1.132925.2204283-2.380162.5375125-3.75 1-.010382-.00121-.020868-.00121-.03125 0-.012063.0086288-.022621.019187-.03125.03125-.012063.0086288-.022621.019187-.03125.03125-.00121.0103815-.00121.0208685 0 .03125-.00121.0103815-.00121.0208685 0 .03125v5.15625c-.00121.010382-.00121.020868 0 .03125-.00121.010382-.00121.020868 0 .03125.008629.012063.019187.022621.03125.03125.008629.012063.019187.022621.03125.03125.010382.00121.020868.00121.03125 0 .010382.00121.020868.00121.03125 0 .010382.00121.020868.00121.03125 0 .010382.00121.020868.00121.03125 0 1.142438-.719043 2.233352-1.267138 3.28125-1.625 1.048141-.368756 2.043116-.562479 2.9375-.5625.949218.000021 1.644925.210545 2.15625.625.508723.40209.781238.98304.78125 1.71875-.00001.480657-.144188.95141-.4375 1.4375-.282991.487016-.740265 1.030495-1.375 1.59375l-1.09375.9375c-1.201459 1.08049-1.989243 1.991022-2.375 2.71875-.383113.711446-.562505 1.519324-.5625 2.4375v.8125c-.00121.010382-.00121.020868 0 .03125-.00121.010382-.00121.020868 0 .03125.008629.012063.019187.022621.03125.03125.008629.012063.019187.022621.03125.03125.010382.00121.020868.00121.03125 0 .010382.00121.020868.00121.03125 0h6.09375c.010382.00121.020868.00121.03125 0 .010382.00121.020868.00121.03125 0 .012063-.008629.022621-.019187.03125-.03125.012063-.008629.022621-.019187.03125-.03125.00121-.010382.00121-.020868 0-.03125.00121-.010382.00121-.020868 0-.03125v-.75c-.000011-.468196.14837-.892849.375-1.28125.222295-.391284.708073-.950359 1.46875-1.625l1.0625-.9375c1.066588-.98231 1.830659-1.884654 2.28125-2.75.449269-.874046.687482-1.87342.6875-2.96875-.000018-2.126265-.743769-3.7340276-2.21875-4.84375-1.475197-1.1210252-3.60624-1.6874737-6.375-1.6875zm-3.5625 19.15625c-.012063.008629-.022621.019187-.03125.03125-.012063.008629-.022621.019187-.03125.03125-.00121.010382-.00121.020868 0 .03125-.00121.010382-.00121.020868 0 .03125v5.84375c-.00121.010382-.00121.020868 0 .03125-.00121.010382-.00121.020868 0 .03125.008629.012063.019187.022621.03125.03125.008629.012063.019187.022621.03125.03125.010382.00121.020868.00121.03125 0 .010382.00121.020868.00121.03125 0h6.09375c.010382.00121.020868.00121.03125 0 .010382.00121.020868.00121.03125 0 .012063-.008629.022621-.019187.03125-.03125.012063-.008629.022621-.019187.03125-.03125.00121-.010382.00121-.020868 0-.03125.00121-.010382.00121-.020868 0-.03125v-5.84375c.00121-.010382.00121-.020868 0-.03125.00121-.010382.00121-.020868 0-.03125-.008629-.012063-.019187-.022621-.03125-.03125-.008629-.012063-.019187-.022621-.03125-.03125-.010382-.00121-.020868-.00121-.03125 0-.010382-.00121-.020868-.00121-.03125 0h-6.09375c-.010382-.00121-.020868-.00121-.03125 0-.010382-.00121-.020868-.00121-.03125 0z" fill="url(#c)" stroke-opacity=".786127" stroke-width="1.099473" transform="matrix(.849895 0 0 .835205 41.72981 8.548327)"/></g></svg>