<svg xmlns="http://www.w3.org/2000/svg" width="48" height="48"><linearGradient id="g" x1="11" x2="17" y1="2" y2="27" gradientTransform="translate(-1 3)" gradientUnits="userSpaceOnUse"><stop offset="0" stop-color="#fff"/><stop offset="1" stop-color="#fcfcff" stop-opacity="0"/></linearGradient><linearGradient id="d" x1="23" x2="22" y1="10" y2="34" gradientTransform="translate(1)" gradientUnits="userSpaceOnUse"><stop offset="0" stop-color="#748f48"/><stop offset="1" stop-color="#1f2816"/></linearGradient><linearGradient id="a" x1="30" x2="25" y1="32" y2="14" gradientTransform="translate(1)" gradientUnits="userSpaceOnUse"><stop offset="0" stop-color="#777973"/><stop offset="1" stop-color="#cbccca"/></linearGradient><linearGradient id="c" x1="9" x2="21" y1="10" y2="32" gradientTransform="translate(1)" gradientUnits="userSpaceOnUse"><stop offset="0" stop-color="#a2a59c"/><stop offset="1" stop-color="#535750"/></linearGradient><linearGradient id="f" x1="20" x2="49" y1="20" y2="50" gradientTransform="translate(1 1)" gradientUnits="userSpaceOnUse"><stop offset="0" stop-color="#fff"/><stop offset="1" stop-color="#fff" stop-opacity="0"/></linearGradient><linearGradient id="e" x1="11" x2="26" y1="9" y2="30" gradientUnits="userSpaceOnUse"><stop offset="0" stop-color="#616161"/><stop offset="1" stop-color="#a0a0a0"/></linearGradient><linearGradient id="i" x1="40" x2="36" y1="42" y2="38" gradientTransform="translate(0 10)" gradientUnits="userSpaceOnUse"><stop offset="0" stop-color="#a9aaa7"/><stop offset="1" stop-color="#676964"/></linearGradient><radialGradient id="h" cx="37" cy="40" r="3" gradientTransform="translate(0 10)" gradientUnits="userSpaceOnUse"><stop offset="0" stop-color="#777973"/><stop offset="1" stop-color="#777973" stop-opacity="0"/></radialGradient><rect width="45" height="39" x="2" y="4" fill="url(#a)" fill-rule="evenodd" stroke="url(#c)" stroke-linecap="round" stroke-linejoin="round" rx="5"/><rect width="37" height="29" x="5" y="7" fill="url(#d)" fill-rule="evenodd" stroke="url(#e)" stroke-linecap="round" stroke-linejoin="round" rx="2" ry="2"/><rect width="43" height="37" x="3" y="5" fill="none" stroke="url(#f)" stroke-linecap="round" stroke-linejoin="round" rx="4"/><path fill="#fff" d="M11.6 20.7v-3l9 4v1.8l-9 4.1v-3l7-1.9zm19 10v2h-11v-2z"/><path fill="url(#g)" fill-rule="evenodd" d="M7.6 8c-.5 0-1.5.2-1.5 1v16.5c17.7-1 14.2-8.2 35.9-11.9V9.3c-.1-1.1-.6-1.2-1.7-1.2z"/><rect width="34" height="26" x="7" y="9" fill="none" stroke="#000" stroke-linecap="round" stroke-linejoin="round" stroke-width="2" rx="0"/><rect width="4" height="3" x="35" y="38" fill="url(#h)" fill-rule="evenodd" stroke="url(#i)" stroke-linecap="round" rx="0" ry="1"/><rect width="2" height="2" x="32" y="38" fill="#93d94c" fill-rule="evenodd" rx="1"/><path fill="#fff" d="M33.3 38.7a.6.6 0 1 1-1.2 0 .6.6 0 1 1 1.1 0"/></svg>