<svg height="48" width="48" xmlns="http://www.w3.org/2000/svg" xmlns:xlink="http://www.w3.org/1999/xlink"><radialGradient id="a" cx="605.71429" cy="486.64789" gradientTransform="matrix(-2.774389 0 0 1.969706 112.7623 -872.8854)" gradientUnits="userSpaceOnUse" r="117.14286" xlink:href="#b"/><linearGradient id="b"><stop offset="0"/><stop offset="1" stop-opacity="0"/></linearGradient><radialGradient id="c" cx="605.71429" cy="486.64789" gradientTransform="matrix(2.774389 0 0 1.969706 -1891.633 -872.8854)" gradientUnits="userSpaceOnUse" r="117.14286" xlink:href="#b"/><linearGradient id="d" gradientTransform="matrix(2.774389 0 0 1.969706 -1892.179 -872.8854)" gradientUnits="userSpaceOnUse" x1="302.85715" x2="302.85715" y1="366.64789" y2="609.50507"><stop offset="0" stop-opacity="0"/><stop offset=".5"/><stop offset="1" stop-opacity="0"/></linearGradient><linearGradient id="e" gradientTransform="matrix(1.236157 0 0 .896051 -1.08182 2.830699)" gradientUnits="userSpaceOnUse" x1="11.492236" x2="17.199417" y1="1.653758" y2="26.729263"><stop offset="0" stop-color="#fff"/><stop offset="1" stop-color="#fcfcff" stop-opacity="0"/></linearGradient><linearGradient id="f" gradientTransform="matrix(.950085 0 0 .965659 1.243978 .255342)" gradientUnits="userSpaceOnUse" x1="23.118565" x2="22.440805" y1="9.583029" y2="34.225887"><stop offset="0" stop-color="#748f48"/><stop offset="1" stop-color="#1f2816"/></linearGradient><linearGradient id="g" gradientTransform="matrix(.957412 0 0 .952331 1.022766 .133307)" gradientUnits="userSpaceOnUse" x1="29.870447" x2="24.841814" y1="32.28574" y2="14.157946"><stop offset="0" stop-color="#777973"/><stop offset="1" stop-color="#cbccca"/></linearGradient><linearGradient id="h" gradientTransform="matrix(.957412 0 0 .952331 1.022766 .133307)" gradientUnits="userSpaceOnUse" x1="8.652924" x2="21.305075" y1="9.586532" y2="32.497993"><stop offset="0" stop-color="#a2a59c"/><stop offset="1" stop-color="#535750"/></linearGradient><linearGradient id="i" gradientTransform="matrix(.953506 0 0 .947873 1.141528 1.205591)" gradientUnits="userSpaceOnUse" x1="20.338758" x2="48.845253" y1="19.636894" y2="49.730762"><stop offset="0" stop-color="#fff"/><stop offset="1" stop-color="#fff" stop-opacity="0"/></linearGradient><linearGradient id="j" gradientTransform="matrix(.997583 0 0 .989941 .104141 .070289)" gradientUnits="userSpaceOnUse" x1="11.048059" x2="26.178129" y1="9.146349" y2="30.343304"><stop offset="0" stop-color="#616161"/><stop offset="1" stop-color="#a0a0a0"/></linearGradient><linearGradient id="k" gradientTransform="matrix(1 0 0 .744756 0 9.569132)" gradientUnits="userSpaceOnUse" x1="40.253334" x2="36.451904" y1="42.318577" y2="37.999615"><stop offset="0" stop-color="#a9aaa7"/><stop offset="1" stop-color="#676964"/></linearGradient><radialGradient id="l" cx="37.495606" cy="39.510023" gradientTransform="matrix(1 0 0 .73779 0 9.844321)" gradientUnits="userSpaceOnUse" r="2.510037"><stop offset="0" stop-color="#777973"/><stop offset="1" stop-color="#777973" stop-opacity="0"/></radialGradient><g transform="matrix(.02454499 0 0 .02086758 46.14369 39.34109)"><path d="m-1559.2523-150.69685h1339.6335v478.35718h-1339.6335z" fill="url(#d)" opacity=".402062"/><path d="m-219.61876-150.68038v478.33079c142.874166.90045 345.40022-107.16966 345.40014-239.196175 0-132.026537-159.436816-239.134595-345.40014-239.134615z" fill="url(#c)" opacity=".402062"/><path d="m-1559.2523-150.68038v478.33079c-142.8742.90045-345.4002-107.16966-345.4002-239.196175 0-132.026537 159.4368-239.134595 345.4002-239.134615z" fill="url(#a)" opacity=".402062"/></g><rect height="38.998734" rx="4.851708" style="fill-rule:evenodd;stroke-width:.999999;stroke-linecap:round;stroke-linejoin:round;fill:url(#g);stroke:url(#h)" width="44.996037" x="1.502634" y="3.501553"/><rect height="29.022322" rx="1.645215" ry="1.645214" style="fill-rule:evenodd;stroke-width:.994958;stroke-linecap:round;stroke-linejoin:round;fill:url(#f);stroke:url(#j)" width="37.088005" x="5.496279" y="7.482709"/><g fill="none" opacity=".255682" stroke="#181f10" stroke-width="1.000721"><path d="m8.0152033 11.500361h31.9789417"/><path d="m8.0152033 13.500361h31.9789417"/><path d="m8.0152033 15.500361h31.9789417"/><path d="m8.0152033 17.500361h31.9789417"/><path d="m8.0152033 19.500361h31.9789417"/><path d="m8.0152033 21.500361h31.9789417"/><path d="m8.0152033 23.500361h31.9789417"/><path d="m8.0152033 25.500361h31.9789417"/><path d="m8.0152033 27.500361h31.9789417"/><path d="m8.0152033 29.500361h31.9789417"/><path d="m8.0152033 31.500361h31.9789417"/><path d="m8.0152033 33.500361h31.9789417"/></g><rect height="37.000587" rx="3.791047" style="opacity:.763736;fill:none;stroke-width:.999999;stroke-linecap:round;stroke-linejoin:round;stroke:url(#i)" width="42.945141" x="2.554256" y="4.500711"/><path d="m11.625 20.679392v-3.054392l8.984828 4.060794v1.855919l-8.984828 4.087434v-3.045318l6.964396-1.853858zm18.892635 10.02636v1.974196h-10.903406v-1.974196z" fill="#fff" stroke="#6ed66e" stroke-opacity=".278689" stroke-width="1pt"/><path d="m7.625388 8c-.523286 0-1.573858.190188-1.573858 1.0259761l.11805 16.5165429c17.671987-.963386 14.124853-8.256093 35.83042-11.909201l-.062736-4.3419389c-.078262-1.1250923-.539317-1.2319243-1.610149-1.2253081z" fill="url(#e)" fill-rule="evenodd" opacity=".531429"/><rect height="26.057468" rx=".117732" style="opacity:.714286;fill:none;stroke:#000;stroke-width:1.999999;stroke-linecap:round;stroke-linejoin:round" width="34.026031" x="6.989456" y="8.980515"/><rect fill="url(#l)" fill-rule="evenodd" height="2.959006" rx=".358194" ry=".560226" stroke="url(#k)" stroke-linecap="round" stroke-width="1.000001" width="4.020073" x="35.485569" y="37.514935"/><rect fill="#93d94c" fill-rule="evenodd" height="2" rx=".560225" width="2" x="32" y="38"/><path d="m28.875 38.75a.5625.5625 0 1 1 -1.125 0 .5625.5625 0 1 1 1.125 0z" fill="#fff" transform="translate(4.375 -.0625)"/></svg>